<svg xmlns="http://www.w3.org/2000/svg" width="1080" height="174" fill="none"><path fill="#F44250" d="M231.527 87c0 7.964-3.23 15.173-8.46 20.387a28.84 28.84 0 0 1-20.433 8.448 28.8 28.8 0 0 0-20.428 8.443c-5.229 5.22-8.465 12.429-8.465 20.393a28.7 28.7 0 0 1-8.46 20.387 28.84 28.84 0 0 1-20.434 8.449c-7.98 0-15.203-3.23-20.427-8.449-5.23-5.214-8.466-12.423-8.466-20.387s3.236-15.173 8.466-20.393a28.8 28.8 0 0 1 20.427-8.443 28.84 28.84 0 0 0 20.434-8.448A28.7 28.7 0 0 0 173.741 87c0-15.929-12.933-28.836-28.894-28.836-7.98 0-15.203-3.23-20.427-8.449-5.23-5.213-8.466-12.422-8.466-20.386 0-7.965 3.236-15.173 8.466-20.393A28.8 28.8 0 0 1 144.847.493c15.961 0 28.894 12.907 28.894 28.836 0 7.964 3.236 15.173 8.465 20.386a28.81 28.81 0 0 0 20.428 8.45c15.96 0 28.893 12.906 28.893 28.835"/><path fill="#121212" d="M115.954 87c0-15.926-12.936-28.836-28.893-28.836S58.168 71.074 58.168 87s12.935 28.835 28.893 28.835 28.893-12.91 28.893-28.835M58.168 144.671c0-15.926-12.936-28.836-28.894-28.836S.381 128.745.381 144.671s12.936 28.835 28.893 28.835 28.894-12.91 28.894-28.835M289.313 144.671c0-15.926-12.935-28.836-28.893-28.836s-28.893 12.91-28.893 28.836 12.936 28.835 28.893 28.835 28.893-12.91 28.893-28.835"/><g fill="#121212" clip-path="url(#a)"><path d="M562.482 173.247c-38.094 0-64.119-25.757-64.119-62.779s26.025-62.78 64.119-62.78 64.387 26.025 64.387 62.78c0 36.754-26.293 62.779-64.387 62.779m0-29.24c16.904 0 25.221-13.688 25.221-33.539s-8.317-33.54-25.221-33.54c-16.903 0-24.953 13.689-24.953 33.54s7.782 33.539 24.953 33.539M833.64 141.116c-9.423 0-14.403-4.432-14.403-14.96V74.898h32.691V47.78h-32.691V1.155H791.75l-5.65 25.043c-2.757 10.282-5.28 16.624-12.203 19.884-.792.369-2.768.916-4.488 1.306a19.4 19.4 0 0 1-4.242.47h-12.829v.066h-17.506c-11.254 0-20.387 9.122-20.387 20.387v43.241c0 19.047-7.246 31.116-21.726 31.116-14.481 0-19.851-9.389-19.851-26.293v-68.45h-38.619v77.84c0 25.489 10.193 47.483 42.381 47.483 15.285 0 27.265-6.017 34.466-16.066 1.049-1.462 3.349-.692 3.349 1.094v11.746h38.887v-86.18a8.953 8.953 0 0 1 8.954-8.955h17.596v62.065c0 27.711 18.008 36.296 37.96 36.296 16.066 0 26.594-3.874 35.738-10.807v-26.315c-7.48 3.327-13.855 4.99-19.951 4.99zM981.561 130.865c-6.174 27.097-27.364 42.393-58.491 42.393-37.827 0-64.655-23.078-64.655-60.904s27.364-64.655 63.851-64.655c39.433 0 60.099 27.097 60.099 59.564v6.621h-85.856c-1.954 21.827 12.873 30.133 27.9 30.133 13.42 0 21.727-5.102 26.025-16.099zm-36.486-35.928c-.804-11.8-8.318-19.08-23.077-19.08-15.564 0-22.81 6.464-24.953 19.08h48.03M1076.24 85.749c-6.18-3.484-12.07-4.835-20.39-4.835-16.1 0-26.83 9.122-26.83 29.777v59.329h-38.627V47.922h38.627v16.402c0 1.138 1.52 1.496 2.03.48 5.63-11.232 16.86-20.097 30.98-20.097 7.24 0 13.42 2.144 16.63 4.834l-2.41 36.219zM547.321 31.535v-7.537h-24.864v7.537h-7.079V2.238h26.762c11.422 0 12.226.715 12.226 10.886 0 4.287-.894 5.437-3.037 6.531l-1.921.983 1.91 1.005c2.277 1.194 3.048 1.596 3.048 8.384v1.508h-7.045M522.457 18.36h24.864V7.888h-24.864V18.36M578.493 2.238h32.333V7.91h-30.759v6.598h29.944v4.779h-29.944v6.61h30.77V31.5l-32.333.034a5.71 5.71 0 0 1-5.717-5.706V7.955a5.71 5.71 0 0 1 5.706-5.706zM655.562 31.535l-2.411-5.192h-19.404l-2.412 5.192h-6.755L637.007 4.75a4.34 4.34 0 0 1 3.93-2.512h4.99a4.33 4.33 0 0 1 3.93 2.512l12.427 26.785h-6.755zM643.46 8.066c-.748 0-1.407.425-1.731 1.106l-5.761 12.404h14.972l-5.75-12.404a1.89 1.89 0 0 0-1.73-1.106"/><path d="M694.862 32.415c-18.812 0-19.549 0-19.549-15.53s.737-15.519 19.549-15.519c16.859 0 18.902.704 19.382 9.167h-6.911V7.016h-25.165v19.75h25.165v-3.495h6.911c-.469 8.44-2.523 9.144-19.382 9.144M745.282 31.535V7.028H729.16v-4.79h38.988v4.79h-16.122v24.507zM454.419 169.819c-3.484-4.555-5.627-15.005-6.967-32.422-1.34-19.293-9.646-23.58-24.92-23.58h-30.278v56.013h-44.76V.986h85.221c43.676 0 65.391 20.633 65.391 53.602 0 24.652-15.273 40.73-35.905 43.42 17.417 3.483 27.599 13.397 29.475 32.958 2.411 25.188 3.215 32.69 8.842 38.853zm-29.743-91.115c19.293 0 28.939-4.823 28.939-20.364 0-13.666-9.646-20.9-28.939-20.9h-32.422v41.275h32.422z"/></g><defs><clipPath id="a"><path fill="#fff" d="M347.494.986h731.156v172.261H347.494z"/></clipPath></defs></svg>